<svg id="Layer_1" data-name="Layer 1" xmlns="http://www.w3.org/2000/svg" viewBox="0 0 143 260"><title>fractions</title><g id="svg_3" data-name="svg 3"><path d="M239,175H159a15,15,0,0,1-15-15V80a15,15,0,0,1,15-15h80a15,15,0,0,1,15,15v80A15,15,0,0,1,239,175ZM159,75a5,5,0,0,0-5,5v80a5,5,0,0,0,5,5h80a5,5,0,0,0,5-5V80a5,5,0,0,0-5-5Z" transform="translate(-130 -65)"/></g><g id="svg_4" data-name="svg 4"><path d="M240,325H160a15,15,0,0,1-15-15V230a15,15,0,0,1,15-15h80a15,15,0,0,1,15,15v80A15,15,0,0,1,240,325ZM160,225a5,5,0,0,0-5,5v80a5,5,0,0,0,5,5h80a5,5,0,0,0,5-5V230a5,5,0,0,0-5-5Z" transform="translate(-130 -65)"/></g><g id="svg_5" data-name="svg 5"><rect y="125" width="143" height="10"/></g></svg>